<?xml version="1.0" standalone="no"?><!DOCTYPE svg PUBLIC "-//W3C//DTD SVG 1.1//EN" "http://www.w3.org/Graphics/SVG/1.1/DTD/svg11.dtd"><svg class="icon" width="24px" height="24.00px" viewBox="0 0 1024 1024" version="1.1" xmlns="http://www.w3.org/2000/svg"><path fill="#1E80FF" d="M592 536h129.6c12.8 0 24 11.2 24 24 0 6.4-3.2 12.8-6.4 17.6L552 760c-16 16-40 16-56 0L310.4 577.6c-9.6-9.6-9.6-24 0-33.6 4.8-4.8 11.2-6.4 17.6-6.4H448V160c0-17.6 14.4-32 32-32h80c17.6 0 32 14.4 32 32v376zM88 896c-12.8 0-24-11.2-24-24S75.2 848 88 848h848c12.8 0 24 11.2 24 24s-11.2 24-24 24h-848z"  /></svg>