<?xml version="1.0" standalone="no"?><!DOCTYPE svg PUBLIC "-//W3C//DTD SVG 1.1//EN" "http://www.w3.org/Graphics/SVG/1.1/DTD/svg11.dtd"><svg class="icon" width="24px" height="24.00px" viewBox="0 0 1024 1024" version="1.1" xmlns="http://www.w3.org/2000/svg"><path fill="#ff4400" d="M518.4 407.466667c12.8 0 21.333333 10.666667 21.333333 21.333333 0 12.8-8.533333 21.333333-21.333333 21.333333h-115.2V512h106.666667c10.666667 0 21.333333 8.533333 21.333333 21.333333 0 10.666667-10.666667 21.333333-21.333333 21.333334h-106.666667v162.133333c0 10.666667-2.133333 21.333333-6.4 32-8.533333 19.2-23.466667 34.133333-42.666667 42.666667-8.533333 4.266667-17.066667 6.4-27.733333 6.4-6.4 0-10.666667-2.133333-14.933333-6.4-4.266667-4.266667-6.4-8.533333-6.4-14.933334 0-10.666667 8.533333-21.333333 19.2-21.333333 8.533333 0 17.066667-4.266667 23.466666-10.666667 6.4-8.533333 10.666667-17.066667 10.666667-25.6V554.666667h-106.666667c-10.666667 0-21.333333-10.666667-21.333333-21.333334s8.533333-21.333333 21.333333-21.333333h106.666667v-61.866667h-115.2c-12.8 0-21.333333-8.533333-21.333333-21.333333 0-10.666667 8.533333-21.333333 21.333333-21.333333h25.6v-49.066667c0-12.8 10.666667-21.333333 21.333333-21.333333h2.133334c10.666667 0 21.333333 8.533333 21.333333 21.333333v49.066667h138.666667v-49.066667c0-12.8 10.666667-21.333333 21.333333-21.333333s21.333333 8.533333 21.333333 21.333333v49.066667h23.466667zM268.8 774.4c-4.266667 10.666667-17.066667 17.066667-27.733333 10.666667h-2.133334c-10.666667-4.266667-14.933333-17.066667-10.666666-27.733334 21.333333-51.2 32-104.533333 34.133333-160 0-10.666667 10.666667-19.2 21.333333-19.2 6.4 0 10.666667 2.133333 14.933334 6.4 4.266667 4.266667 6.4 10.666667 4.266666 14.933334 0 64-10.666667 121.6-34.133333 174.933333z m238.933333-507.733333c10.666667 0 21.333333 10.666667 21.333334 21.333333v2.133333c0 10.666667-10.666667 21.333333-21.333334 21.333334h-256c-10.666667 0-21.333333-10.666667-21.333333-21.333334v-2.133333c0-10.666667 8.533333-21.333333 21.333333-21.333333h106.666667v-27.733334c0-10.666667 10.666667-21.333333 21.333333-21.333333h2.133334c10.666667 0 21.333333 10.666667 21.333333 21.333333v27.733334h104.533333z m17.066667 494.933333c2.133333 10.666667-4.266667 21.333333-17.066667 23.466667-12.8 2.133333-23.466667-4.266667-25.6-17.066667l-29.866666-164.266667c-2.133333-10.666667 4.266667-21.333333 17.066666-23.466666 6.4-2.133333 10.666667 0 17.066667 2.133333 4.266667 4.266667 8.533333 8.533333 8.533333 12.8l29.866667 166.4z m40.533333-450.133333c0-10.666667 2.133333-21.333333 6.4-29.866667 12.8-29.866667 42.666667-49.066667 74.666667-49.066667h134.4c10.666667 0 21.333333 10.666667 21.333333 21.333334 0 12.8-10.666667 21.333333-21.333333 21.333333h-134.4c-10.666667 0-19.2 4.266667-25.6 10.666667-6.4 8.533333-10.666667 17.066667-10.666667 25.6l-2.133333 91.733333h174.933333c12.8 0 21.333333 10.666667 21.333334 21.333333v2.133334c0 10.666667-8.533333 21.333333-21.333334 21.333333h-21.333333v326.4c0 10.666667-10.666667 21.333333-21.333333 21.333333-12.8 0-21.333333-10.666667-21.333334-21.333333V445.866667h-110.933333l-2.133333 106.666666c-2.133333 72.533333-2.133333 147.2-4.266667 219.733334 0 10.666667-10.666667 21.333333-21.333333 21.333333H576c-12.8 0-21.333333-10.666667-21.333333-21.333333l10.666666-460.8z"  /></svg>