<?xml version="1.0" standalone="no"?><!DOCTYPE svg PUBLIC "-//W3C//DTD SVG 1.1//EN" "http://www.w3.org/Graphics/SVG/1.1/DTD/svg11.dtd"><svg class="icon" width="16px" height="16.00px" viewBox="0 0 1024 1024" version="1.1" xmlns="http://www.w3.org/2000/svg"><path fill="#eeeeee" d="M242.42 370.04s54.6-84.16 141.01-129.32c86.4-45.15 192.86-32.15 262.67 11.64 69.82 43.78 93.31 80.73 93.31 80.73l60.15-34.21s12.44-6.16 12.44 8.21v214.83s0 19.17-14.52 12.32c-12.22-5.75-144.29-80.75-185.9-104.42-22.86-10.18-2.78-18.45-2.78-18.45l58.03-33.12s-33.1-41.41-81.55-63.33c-51.87-26.98-100.41-30.18-159.89-7.76-38.78 14.62-84.43 52.05-117.33 107.35l-65.64-44.47z m539.17 283.93s-54.61 84.16-141.01 129.31c-86.41 45.16-192.86 32.16-262.67-11.63-69.82-43.79-93.32-80.74-93.32-80.74l-60.13 34.2s-12.44 6.17-12.44-8.21V502.07s0-19.16 14.52-12.32c12.21 5.76 144.29 80.76 185.9 104.42 22.85 10.18 2.77 18.45 2.77 18.45l-58.03 33.12s33.11 41.4 81.55 63.33c51.85 26.98 100.41 30.18 159.88 7.76 38.78-14.62 84.43-52.05 117.33-107.35l65.65 44.49z m0 0" /></svg>