<?xml version="1.0" standalone="no"?><!DOCTYPE svg PUBLIC "-//W3C//DTD SVG 1.1//EN" "http://www.w3.org/Graphics/SVG/1.1/DTD/svg11.dtd"><svg class="icon" width="24px" height="24.00px" viewBox="0 0 1024 1024" version="1.1" xmlns="http://www.w3.org/2000/svg"><path fill="#ffffff" d="M845.704 256.128l22.97 17.566c0.346-0.464 0.694-0.928 1.004-1.39l-23.974-16.176z m-220.9 288.808l-23.01-17.566c-0.348 0.464-0.696 0.926-1.004 1.39l24.012 16.176z m-40.538 258.81l20.346 20.578-20.346-20.578z m-84.082 83.08l-20.344-20.616 20.344 20.616z m-99.988-341.89l24.012-16.176a31.304 31.304 0 0 0-1.004-1.39l-23.008 17.566zM179.296 256.128l-23.974 16.176c0.308 0.462 0.656 0.926 1.004 1.39l22.97-17.566z m69.952-100.22h526.502V98h-526.5v57.908z m573.446 82.616l-220.9 288.846 46.018 35.17 220.86-288.846-45.978-35.17z m-255.066 398.6v137.244h57.908v-137.242h-57.908z m-3.744 146.008l-84.044 83.08 40.69 41.19 84.08-83.08-40.726-41.19z m-106.514 74.314v-220.32h-57.908v220.32h57.908z m-34.166-330.076l-220.9-288.846-45.98 35.17L377.19 562.54l46.016-35.17z m34.166 109.756a193.716 193.716 0 0 0-33.16-108.366l-48.026 32.39a135.628 135.628 0 0 1 23.28 75.976h57.906z m22.47 229.084c-8.688 8.61-22.47 1.814-22.47-8.764h-57.908c0 63.43 76.826 93.696 121.068 49.956l-40.69-41.192z m87.788-91.842c0 3.204-1.312 6.37-3.744 8.764l40.728 41.192c13.358-13.204 20.924-31.156 20.924-49.956h-57.908z m33.162-245.608a193.716 193.716 0 0 0-33.162 108.366h57.908a135.628 135.628 0 0 1 23.28-75.976l-48.026-32.39z m174.96-372.852c44.55 0 69.838 48.566 45.94 84.006l47.988 32.39C920.25 197.332 865.47 98 775.75 98v57.908zM249.25 98c-89.72 0-144.5 99.332-93.928 174.304l47.986-32.39c-23.896-35.44 1.39-84.006 45.94-84.006V98z"  /></svg>