<?xml version="1.0" standalone="no"?><!DOCTYPE svg PUBLIC "-//W3C//DTD SVG 1.1//EN" "http://www.w3.org/Graphics/SVG/1.1/DTD/svg11.dtd"><svg width="24" height="25" viewBox="0 0 24 25" fill="none" xmlns="http://www.w3.org/2000/svg" class="course-img" data-v-2ccc3f00=""><path fill-rule="evenodd" clip-rule="evenodd" d="M17.7007 2.60955C18.0312 2.46364 18.4026 2.70567 18.4026 3.06696V4.41189C18.4026 4.60994 18.2857 4.78932 18.1045 4.86931L12.2033 7.47444C12.0747 7.53121 11.9281 7.53123 11.7995 7.47449L5.9017 4.87264C5.72046 4.79269 5.60352 4.61327 5.60352 4.41518V3.07013C5.60352 2.70889 5.97482 2.46686 6.30533 2.61266L12.0014 5.12551L17.7007 2.60955ZM12.2037 22.2099C12.0751 22.2667 11.9285 22.2667 11.7999 22.2099L3.72683 18.6471C3.54563 18.5671 3.42871 18.3877 3.42871 18.1896V6.53611C3.42871 6.17484 3.80008 5.93282 4.13059 6.07868L12.0018 9.55243L19.8696 6.07882C20.2001 5.9329 20.5716 6.17493 20.5716 6.53623V18.1897C20.5716 18.3877 20.4547 18.5671 20.2735 18.6471L12.2037 22.2099ZM11.3787 11.2998C11.2683 11.2998 11.1787 11.3893 11.1787 11.4998V18.0998C11.1787 18.2103 11.2683 18.2998 11.3787 18.2998H12.4787C12.5892 18.2998 12.6787 18.2103 12.6787 18.0998V11.4998C12.6787 11.3893 12.5892 11.2998 12.4787 11.2998H11.3787Z" fill="#1E80FF" data-v-2ccc3f00=""></path></svg>